<svg width="37" height="4" viewBox="0 0 37 4" fill="none" xmlns="http://www.w3.org/2000/svg">
<path d="M0.760291 1.21286C0.759008 1.27313 0.842279 1.33268 1.00398 1.38714C1.16568 1.44159 1.40171 1.48957 1.69472 1.52754L16.8476 3.4761C17.2995 3.53543 17.8663 3.56787 18.4513 3.56787C19.0362 3.56787 19.603 3.53543 20.0549 3.4761L35.2078 1.45895C35.7235 1.39048 36.0479 1.29208 36.1094 1.1854C36.171 1.07872 35.9648 0.972507 35.5361 0.89012C35.1074 0.807733 34.4914 0.755923 33.8236 0.746088C33.1558 0.736252 32.4909 0.769197 31.9752 0.837674L18.4386 2.641L4.90207 0.898188C4.53137 0.848856 4.07996 0.817519 3.60126 0.807885C3.12256 0.798251 2.6366 0.810724 2.20089 0.843828C1.76517 0.876932 1.39794 0.92928 1.14264 0.99468C0.887337 1.06008 0.754655 1.13579 0.760291 1.21286Z" fill="black"/>
</svg>
