<svg width="13" height="8" viewBox="0 0 13 8" fill="none" xmlns="http://www.w3.org/2000/svg">
<path d="M6.35631e-05 1.63003C-0.000408081 1.76899 0.030206 1.90629 0.0896555 2.03185C0.149105 2.1574 0.23588 2.26801 0.343603 2.35556L5.91451 6.84821C6.08064 6.98502 6.28903 7.05981 6.50409 7.05981C6.71915 7.05981 6.92754 6.98502 7.09368 6.84821L12.6646 2.19743C12.8542 2.03955 12.9734 1.81267 12.9961 1.56671C13.0187 1.32075 12.9429 1.07586 12.7853 0.885907C12.6277 0.695954 12.4012 0.576499 12.1557 0.553822C11.9102 0.531145 11.6657 0.607103 11.4761 0.764987L6.49945 4.92279L1.52278 0.904511C1.38649 0.790768 1.22053 0.718517 1.04454 0.696305C0.868546 0.674093 0.689883 0.702851 0.529694 0.779176C0.369505 0.8555 0.234493 0.976198 0.140632 1.12699C0.0467715 1.27777 -0.00200863 1.45234 6.35631e-05 1.63003Z" fill="black"/>
</svg>
